<?xml version="1.0" encoding="utf-8"?>
<!-- Generator: Adobe Illustrator 12.0.0, SVG Export Plug-In . SVG Version: 6.00 Build 51448)  -->
<!DOCTYPE svg PUBLIC "-//W3C//DTD SVG 1.1//EN" "http://www.w3.org/Graphics/SVG/1.1/DTD/svg11.dtd" [
	<!ENTITY ns_svg "http://www.w3.org/2000/svg">
	<!ENTITY ns_xlink "http://www.w3.org/1999/xlink">
]>
<svg  version="1.1" id="Layer_2_1_" xmlns="&ns_svg;" xmlns:xlink="&ns_xlink;" width="173.664" height="136.209"
	 viewBox="0 0 173.664 136.209" overflow="visible" enable-background="new 0 0 173.664 136.209" xml:space="preserve">
<g id="Layer_4_2_">
	<g id="Layer_6_1_">
		<g>
			<g>
				<polygon points="61.443,103.669 50.938,93.166 111.188,27.15 127.798,43.393 				"/>
				<path d="M128.596,128.124c-1.4-1.398-36.418-54.343-36.418-54.343l19.053-19.049c0,0,22.123,54.063,23.526,57.894
					C136.154,116.451,129.998,129.524,128.596,128.124z"/>
				<path d="M126.54,44.647c-13.409,13.41-27.951,20.596-32.491,16.062c-4.541-4.54,2.65-19.086,16.063-32.494
					c13.404-13.409,27.953-20.599,32.49-16.061C147.139,16.689,139.945,31.242,126.54,44.647z"/>
				<path d="M36.366,78.785c0.517,0.515,16.69,16.688,16.69,16.688L63.91,84.621c0,0-18.002-10.021-19.654-10.289
					C42.602,74.063,35.85,78.271,36.366,78.785z"/>
				<path d="M76.384,118.969C75.871,118.452,59.7,102.28,59.7,102.28l10.85-10.854c0,0,10.021,17.999,10.29,19.652
					C81.11,112.733,76.899,119.481,76.384,118.969z"/>
				<path d="M26.02,25.55c1.4,1.399,54.342,36.414,54.342,36.414l19.05-19.049c0,0-54.064-22.128-57.895-23.529
					C37.689,17.984,24.618,24.147,26.02,25.55z"/>
			</g>
		</g>
	</g>
</g>
</svg>
