<?xml version="1.0" encoding="utf-8"?>
<!-- Generator: Adobe Illustrator 12.0.0, SVG Export Plug-In . SVG Version: 6.00 Build 51448)  -->
<!DOCTYPE svg PUBLIC "-//W3C//DTD SVG 1.1//EN" "http://www.w3.org/Graphics/SVG/1.1/DTD/svg11.dtd" [
	<!ENTITY ns_svg "http://www.w3.org/2000/svg">
	<!ENTITY ns_xlink "http://www.w3.org/1999/xlink">
]>
<svg  version="1.1" id="Layer_1" xmlns="&ns_svg;" xmlns:xlink="&ns_xlink;" width="168.263" height="167.393"
	 viewBox="0 0 168.263 167.393" overflow="visible" enable-background="new 0 0 168.263 167.393" xml:space="preserve">
<g>
	<g>
		<polygon fill="#FFFFFF" points="50.64,132.385 35.667,117.414 121.55,23.315 145.224,46.466 		"/>
		<path fill="#FFFFFF" d="M146.36,167.243c-1.993-1.995-51.908-77.461-51.908-77.461l27.156-27.152c0,0,31.538,77.062,33.537,82.522
			C157.136,150.605,148.36,169.24,146.36,167.243z"/>
		<path fill="#FFFFFF" d="M143.431,48.255c-19.111,19.113-39.842,29.358-46.313,22.894c-6.472-6.471,3.777-27.205,22.895-46.318
			C139.12,5.719,159.859-4.53,166.326,1.938C172.793,8.403,162.539,29.147,143.431,48.255z"/>
		<path fill="#FFFFFF" d="M14.899,96.913c0.736,0.736,23.788,23.788,23.788,23.788l15.471-15.468c0,0-25.66-14.283-28.014-14.667
			C23.785,90.185,14.162,96.183,14.899,96.913z"/>
		<path fill="#FFFFFF" d="M71.939,154.192c-0.729-0.736-23.781-23.787-23.781-23.787l15.467-15.473c0,0,14.283,25.657,14.665,28.014
			C78.676,145.305,72.675,154.924,71.939,154.192z"/>
		<path fill="#FFFFFF" d="M0.149,21.032c1.997,1.995,77.459,51.906,77.459,51.906l27.155-27.153c0,0-77.062-31.542-82.523-33.538
			C16.785,10.25-1.848,19.034,0.149,21.032z"/>
	</g>
</g>
</svg>
