<?xml version="1.0" encoding="utf-8"?>
<!-- Generator: Adobe Illustrator 12.0.0, SVG Export Plug-In . SVG Version: 6.00 Build 51448)  -->
<!DOCTYPE svg PUBLIC "-//W3C//DTD SVG 1.1//EN" "http://www.w3.org/Graphics/SVG/1.1/DTD/svg11.dtd" [
	<!ENTITY ns_svg "http://www.w3.org/2000/svg">
	<!ENTITY ns_xlink "http://www.w3.org/1999/xlink">
]>
<svg  version="1.1" id="Layer_1" xmlns="&ns_svg;" xmlns:xlink="&ns_xlink;" width="168.264" height="167.393"
	 viewBox="0 0 168.264 167.393" overflow="visible" enable-background="new 0 0 168.264 167.393" xml:space="preserve">
<g>
	<g>
		<rect x="12.134" y="14.87" fill="#FFFFFF" width="144.554" height="34.936"/>
		
			<rect x="-17.193" y="47.859" transform="matrix(0.7071 0.7071 -0.7071 0.7071 57.0555 -7.0929)" fill="#FFFFFF" stroke="#201F1F" width="108.566" height="34.935"/>
		
			<rect x="76.771" y="49.065" transform="matrix(-0.7071 0.7071 -0.7071 -0.7071 270.7679 20.9152)" fill="#FFFFFF" stroke="#201F1F" width="108.562" height="34.935"/>
		<circle fill="#FFFFFF" stroke="#201F1F" cx="87.419" cy="128.712" r="43.967"/>
		<g>
			<path fill="#201F1F" stroke="#201F1F" stroke-width="1.5" d="M74.602,139.948l9.639-0.199V105.13h-0.203l-11.437,6.171
				l-1.713-6.781l14.363-7.688h7.587v43.122l9.643-0.199v7.623H74.602V139.948z"/>
		</g>
		<g>
			<path fill="#FFFFFF" d="M75.597,138.79l9.64-0.203V103.97h-0.201l-11.44,6.171l-1.72-6.78l14.367-7.689h7.589v43.124l9.641-0.198
				v7.622H75.597V138.79z"/>
		</g>
	</g>
</g>
</svg>
