<?xml version="1.0" encoding="utf-8"?>
<!-- Generator: Adobe Illustrator 12.0.0, SVG Export Plug-In . SVG Version: 6.00 Build 51448)  -->
<!DOCTYPE svg PUBLIC "-//W3C//DTD SVG 1.1//EN" "http://www.w3.org/Graphics/SVG/1.1/DTD/svg11.dtd" [
	<!ENTITY ns_svg "http://www.w3.org/2000/svg">
	<!ENTITY ns_xlink "http://www.w3.org/1999/xlink">
]>
<svg  version="1.1" id="Layer_1" xmlns="&ns_svg;" xmlns:xlink="&ns_xlink;" width="130.038" height="104.032"
	 viewBox="0 0 130.038 104.032" overflow="visible" enable-background="new 0 0 130.038 104.032" xml:space="preserve">
<g id="Layer_6_1_">
	<g>
		<g>
			<polygon fill="#FFFFFF" points="1.297,61.12 21.451,70.75 21.451,104.032 1.297,104.032 			"/>
			<polygon fill="#FFFFFF" points="107.926,70.786 128.087,60.468 128.087,103.384 107.926,103.384 			"/>
			<g>
				<g>
					<path fill="#FFFFFF" d="M120.934,30.885C120.934,7.364,95.61,0,64.37,0C33.128,0,7.804,7.365,7.804,30.885
						c0,21.526-6.744,49.128,20.802,53.65c2.549,0.418,64.974,0.638,67.623,0.638C127.47,85.173,120.934,54.401,120.934,30.885z
						 M20.226,67.621c-5.708,0-10.334-4.624-10.334-10.333c0-5.708,4.626-10.335,10.334-10.335s10.333,4.627,10.333,10.335
						C30.559,62.997,25.934,67.621,20.226,67.621z M15.259,24.271c0-14.023,21.919-18.417,48.967-18.417
						c27.043-0.001,48.966,4.393,48.966,18.417C113.192,38.296,15.259,40.962,15.259,24.271z M109.954,67.621
						c-5.707,0-10.336-4.624-10.336-10.333c0-5.708,4.629-10.335,10.336-10.335s10.332,4.627,10.332,10.335
						C120.286,62.997,115.661,67.621,109.954,67.621z"/>
				</g>
			</g>
			<g>
				<g>
					<path fill="#FFFFFF" d="M35.356,34.108c-3.852-0.584-7.327-1.324-10.261-2.226c-0.345-0.012-0.69-0.021-1.039-0.021
						C10.767,31.861,0,40.446,0,51.04v14.305c0,10.594,10.767,19.18,24.056,19.18c13.285,0,24.054-8.586,24.054-19.18V51.04
						C48.111,43.704,42.945,37.334,35.356,34.108z M20.334,67.621C14.626,67.621,10,62.997,10,57.288
						c0-5.708,4.626-10.335,10.334-10.335c5.708,0,10.333,4.627,10.333,10.335C30.666,62.997,26.042,67.621,20.334,67.621z
						 M105.981,32.509c-13.289,0-24.061,8.589-24.061,19.184v14.303c0,10.594,10.771,19.179,24.061,19.179
						c13.284,0,24.057-8.586,24.057-19.179V51.69C130.036,41.098,119.265,32.509,105.981,32.509z M110.061,67.621
						c-5.706,0-10.335-4.624-10.335-10.333c0-5.708,4.629-10.335,10.335-10.335c5.708,0,10.333,4.627,10.333,10.335
						C120.394,62.997,115.769,67.621,110.061,67.621z"/>
				</g>
			</g>
		</g>
	</g>
</g>
</svg>
