<?xml version="1.0" encoding="utf-8"?>
<!-- Generator: Adobe Illustrator 12.0.0, SVG Export Plug-In . SVG Version: 6.00 Build 51448)  -->
<!DOCTYPE svg PUBLIC "-//W3C//DTD SVG 1.1//EN" "http://www.w3.org/Graphics/SVG/1.1/DTD/svg11.dtd" [
	<!ENTITY ns_svg "http://www.w3.org/2000/svg">
	<!ENTITY ns_xlink "http://www.w3.org/1999/xlink">
]>
<svg  version="1.1" id="Layer_1" xmlns="&ns_svg;" xmlns:xlink="&ns_xlink;" width="189.035" height="151.234"
	 viewBox="0 0 189.035 151.234" overflow="visible" enable-background="new 0 0 189.035 151.234" xml:space="preserve">
<g>
	<g>
		<path fill="#FFFFFF" d="M175.803,44.898c0,34.188,9.502,78.92-35.914,78.92c-3.852,0-94.6-0.319-98.305-0.927
			c-40.045-6.575-30.241-46.7-30.241-77.993C11.343,10.706,48.157,0,93.575,0C138.988,0,175.803,10.706,175.803,44.898z"/>
		<path fill="#FFFFFF" d="M69.939,94.994c0,15.399-15.656,27.882-34.969,27.882l0,0C15.652,122.876,0,110.394,0,94.994V74.198
			c0-15.399,15.652-27.88,34.97-27.88l0,0c19.313,0,34.969,12.48,34.969,27.88V94.994z"/>
		<path fill="#FFFFFF" d="M189.035,95.938c0,15.398-15.658,27.88-34.971,27.88l0,0c-19.316,0-34.976-12.48-34.976-27.88V75.145
			c0-15.399,15.658-27.885,34.976-27.885l0,0c19.313,0,34.971,12.485,34.971,27.885V95.938z"/>
		<rect x="1.885" y="88.851" fill="#FFFFFF" width="29.298" height="62.384"/>
		<rect x="156.893" y="87.905" fill="#FFFFFF" width="29.308" height="62.386"/>
		<path fill="#231F20" d="M164.547,35.283c0,20.39-142.365,24.265-142.365,0c0-20.386,31.864-26.772,71.183-26.772
			C132.678,8.51,164.547,14.897,164.547,35.283z"/>
		<path fill="#231F20" d="M44.423,83.282c0,8.298-6.723,15.021-15.02,15.021c-8.297,0-15.023-6.723-15.023-15.021
			c0-8.299,6.726-15.024,15.023-15.024C37.7,68.258,44.423,74.983,44.423,83.282z"/>
		<path fill="#231F20" d="M174.861,83.282c0,8.298-6.723,15.021-15.021,15.021c-8.295,0-15.023-6.723-15.023-15.021
			c0-8.299,6.729-15.024,15.023-15.024C168.139,68.258,174.861,74.983,174.861,83.282z"/>
	</g>
</g>
</svg>
