<?xml version="1.0" encoding="utf-8"?>
<!-- Generator: Adobe Illustrator 12.0.0, SVG Export Plug-In . SVG Version: 6.00 Build 51448)  -->
<!DOCTYPE svg PUBLIC "-//W3C//DTD SVG 1.1//EN" "http://www.w3.org/Graphics/SVG/1.1/DTD/svg11.dtd" [
	<!ENTITY ns_svg "http://www.w3.org/2000/svg">
	<!ENTITY ns_xlink "http://www.w3.org/1999/xlink">
]>
<svg  version="1.1" id="Layer_2_1_" xmlns="&ns_svg;" xmlns:xlink="&ns_xlink;" width="173.664" height="136.209"
	 viewBox="0 0 173.664 136.209" overflow="visible" enable-background="new 0 0 173.664 136.209" xml:space="preserve">
<g id="Layer_6_3_">
	<g>
		<g>
			<polygon points="22.119,76.827 42.273,86.457 42.273,119.739 22.119,119.739 			"/>
			<polygon points="128.748,86.493 148.909,76.175 148.909,119.091 128.748,119.091 			"/>
			<g>
				<g>
					<path d="M141.756,46.592c0-23.521-25.324-30.885-56.564-30.885c-31.242,0-56.566,7.365-56.566,30.885
						c0,21.526-6.744,49.128,20.802,53.65c2.549,0.418,64.974,0.638,67.623,0.638C148.292,100.88,141.756,70.108,141.756,46.592z
						 M41.048,83.328c-5.708,0-10.334-4.624-10.334-10.333c0-5.708,4.626-10.335,10.334-10.335s10.333,4.627,10.333,10.335
						C51.381,78.704,46.756,83.328,41.048,83.328z M36.081,39.978c0-14.022,21.919-18.416,48.967-18.416
						c27.043-0.002,48.966,4.393,48.966,18.416C134.014,54.003,36.081,56.669,36.081,39.978z M130.775,83.328
						c-5.707,0-10.336-4.624-10.336-10.333c0-5.708,4.629-10.335,10.336-10.335s10.332,4.627,10.332,10.335
						C141.107,78.704,136.482,83.328,130.775,83.328z"/>
				</g>
			</g>
			<g>
				<g>
					<path d="M56.178,49.815c-3.852-0.584-7.327-1.324-10.261-2.227c-0.345-0.012-0.69-0.021-1.039-0.021
						c-13.289,0-24.056,8.586-24.056,19.18v14.305c0,10.594,10.767,19.18,24.056,19.18c13.285,0,24.054-8.586,24.054-19.18V66.747
						C68.933,59.411,63.767,53.041,56.178,49.815z M41.156,83.328c-5.708,0-10.334-4.624-10.334-10.333
						c0-5.708,4.626-10.335,10.334-10.335c5.708,0,10.333,4.627,10.333,10.335C51.488,78.704,46.864,83.328,41.156,83.328z
						 M126.803,48.216c-13.289,0-24.061,8.59-24.061,19.184v14.303c0,10.594,10.771,19.179,24.061,19.179
						c13.284,0,24.057-8.586,24.057-19.179V67.397C150.857,56.806,140.087,48.216,126.803,48.216z M130.883,83.328
						c-5.706,0-10.335-4.624-10.335-10.333c0-5.708,4.629-10.335,10.335-10.335c5.708,0,10.333,4.627,10.333,10.335
						C141.216,78.704,136.591,83.328,130.883,83.328z"/>
				</g>
			</g>
		</g>
	</g>
</g>
</svg>
