<?xml version="1.0" encoding="utf-8"?>
<!-- Generator: Adobe Illustrator 12.0.0, SVG Export Plug-In . SVG Version: 6.00 Build 51448)  -->
<!DOCTYPE svg PUBLIC "-//W3C//DTD SVG 1.1//EN" "http://www.w3.org/Graphics/SVG/1.1/DTD/svg11.dtd" [
	<!ENTITY ns_svg "http://www.w3.org/2000/svg">
	<!ENTITY ns_xlink "http://www.w3.org/1999/xlink">
]>
<svg  version="1.1" id="Layer_1" xmlns="&ns_svg;" xmlns:xlink="&ns_xlink;" width="168.264" height="167.393"
	 viewBox="0 0 168.264 167.393" overflow="visible" enable-background="new 0 0 168.264 167.393" xml:space="preserve">
<g>
	<g>
		<path fill="#FFFFFF" stroke="#FFFFFF" stroke-width="5" d="M130.719,19.912v17.916c-7.403-3.347-14.388-5.841-20.952-7.487
			c-6.567-1.643-12.91-2.467-19.024-2.467c-10.626,0-18.813,1.943-24.575,5.83c-5.762,3.885-8.644,9.408-8.644,16.569
			c0,6.012,1.915,10.547,5.741,13.613c3.826,3.066,11.085,5.539,21.77,7.42l11.774,2.273c14.527,2.607,25.25,7.202,32.16,13.783
			c6.918,6.576,10.37,15.39,10.37,26.429c0,13.159-4.68,23.134-14.038,29.927c-9.367,6.793-23.083,10.188-41.163,10.188
			c-6.816,0-14.07-0.724-21.762-2.164c-7.69-1.444-15.646-3.583-23.883-6.409v-18.989c7.915,4.205,15.673,7.376,23.266,9.511
			c7.595,2.136,15.065,3.198,22.401,3.198c11.129,0,19.726-2.066,25.776-6.196c6.048-4.13,9.072-10.017,9.072-17.669
			c0-6.682-2.171-11.899-6.517-15.668c-4.34-3.769-11.47-6.589-21.378-8.473l-11.871-2.184
			c-14.572-2.729-25.115-7.003-31.629-12.821c-6.512-5.818-9.771-13.914-9.771-24.282c0-12.001,4.496-21.461,13.485-28.371
			c8.988-6.911,21.373-10.368,37.159-10.368c6.767,0,13.657,0.574,20.682,1.724C116.189,15.892,123.376,17.614,130.719,19.912z"/>
	</g>
	<rect x="94.152" y="-10.262" fill="#FFFFFF" width="14.874" height="190.466"/>
	<rect x="67.263" y="-11.262" fill="#FFFFFF" width="14.874" height="190.466"/>
</g>
</svg>
