<?xml version="1.0" encoding="utf-8"?>
<!-- Generator: Adobe Illustrator 12.0.0, SVG Export Plug-In  -->
<!DOCTYPE svg PUBLIC "-//W3C//DTD SVG 1.1//EN" "http://www.w3.org/Graphics/SVG/1.1/DTD/svg11.dtd" [
	<!ENTITY ns_flows "http://ns.adobe.com/Flows/1.0/">
	<!ENTITY ns_svg "http://www.w3.org/2000/svg">
	<!ENTITY ns_xlink "http://www.w3.org/1999/xlink">
]>
<svg  version="1.1" xmlns="&ns_svg;" xmlns:xlink="&ns_xlink;" xmlns:a="http://ns.adobe.com/AdobeSVGViewerExtensions/3.0/"
	 width="119" height="108" viewBox="-0.824 -0.783 119 108" enable-background="new -0.824 -0.783 119 108" xml:space="preserve">
<defs>
</defs>
<rect x="4" y="4" fill="#FFFFFF" stroke="#000000" stroke-width="8" width="98.885" height="98.884"/>
<rect x="34.303" y="47.676" transform="matrix(0.7071 -0.7071 0.7071 0.7071 -16.8874 71.7201)" fill="#FFFFFF" stroke="#FFFFFF" stroke-width="4" width="87.648" height="17.136"/>
<rect x="20.617" y="62.785" transform="matrix(-0.7071 -0.7071 0.7071 -0.7071 23.0767 152.2634)" fill="#FFFFFF" stroke="#FFFFFF" stroke-width="4" width="44.917" height="17.135"/>
<path fill="#FFFFFF" stroke="#FFFFFF" stroke-width="5" d="M23.36,40.131l41.654,41.656L52.897,93.903c0,0,2.703,1.729-7.34-5.738
	C27.258,74.561,9.584,63.739,9.584,63.739L23.36,40.131z"/>
<rect x="34.305" y="47.957" transform="matrix(0.7071 -0.7071 0.7071 0.7071 -17.0857 71.8002)" width="87.648" height="17.135"/>
<path d="M23.359,39.799l41.654,41.656L52.897,93.571c0,0,2.702,1.729-7.34-5.738C27.258,74.228,9.583,63.407,9.583,63.407
	L23.359,39.799z"/>
</svg>
