<?xml version="1.0" encoding="utf-8"?>
<!-- Generator: Adobe Illustrator 12.0.0, SVG Export Plug-In . SVG Version: 6.00 Build 51448)  -->
<!DOCTYPE svg PUBLIC "-//W3C//DTD SVG 1.1//EN" "http://www.w3.org/Graphics/SVG/1.1/DTD/svg11.dtd" [
	<!ENTITY ns_svg "http://www.w3.org/2000/svg">
	<!ENTITY ns_xlink "http://www.w3.org/1999/xlink">
]>
<svg  version="1.1" id="Layer_1" xmlns="&ns_svg;" xmlns:xlink="&ns_xlink;" width="179.764" height="134.083"
	 viewBox="0 0 179.764 134.083" overflow="visible" enable-background="new 0 0 179.764 134.083" xml:space="preserve">
<g>
	<g>
		<path fill="#FFFFFF" d="M51.399,7.826c0,4.322-3.363,7.83-7.506,7.83c-4.148,0-7.506-3.507-7.506-7.83
			C36.387,3.505,39.744,0,43.893,0C48.035,0,51.399,3.505,51.399,7.826z"/>
		<polygon fill="#FFFFFF" points="51.708,19.39 36.387,36.694 36.387,6.997 51.708,6.997 		"/>
	</g>
	<g>
		<path fill="#FFFFFF" d="M35.916,23.896c0,4.325-3.368,7.83-7.509,7.83c-4.148,0-7.506-3.505-7.506-7.83
			c0-4.321,3.357-7.826,7.506-7.826C32.548,16.07,35.916,19.576,35.916,23.896z"/>
		<polygon fill="#FFFFFF" points="36.222,35.458 20.901,52.763 20.901,23.07 36.222,23.07 		"/>
	</g>
	<path fill="#FFFFFF" d="M125.952,124.404c0,0,2.786-27.646,19.531-51.848c16.308-23.554,34.279-40.877,34.279-40.877
		S98.376,22.71,49.188,68.075C0,113.454,0,104.782,0,104.782v10.961C0,115.743,73.874,150.424,125.952,124.404z"/>
	<path fill="#FFFFFF" d="M6.953,95.725l1.609-9.102c0,0,47.078-68.181,81.683-76.293c30.011-7.032,29.475-1.354,34.339,3.516
		c4.869,4.866,4.869,8.379,4.869,8.379S73.824,7.948,6.953,95.725z"/>
	<path fill="#FFFFFF" stroke="#231F20" d="M4.202,87.422c0,0,30.782-44.25,40.425-53.479c9.634-9.22,11.18-11.162,17.917-14.628
		c12.874-6.622,13.463-5.332,13.463-5.332S43.713-12.135,4.202,87.422z"/>
	<line fill="none" stroke="#231F20" stroke-width="0.5" x1="34.686" y1="8.408" x2="35.582" y2="29.059"/>
</g>
</svg>
