<?xml version="1.0" encoding="utf-8"?>
<!-- Generator: Adobe Illustrator 12.0.0, SVG Export Plug-In . SVG Version: 6.00 Build 51448)  -->
<!DOCTYPE svg PUBLIC "-//W3C//DTD SVG 1.1//EN" "http://www.w3.org/Graphics/SVG/1.1/DTD/svg11.dtd" [
	<!ENTITY ns_svg "http://www.w3.org/2000/svg">
	<!ENTITY ns_xlink "http://www.w3.org/1999/xlink">
]>
<svg  version="1.1" id="Layer_1" xmlns="&ns_svg;" xmlns:xlink="&ns_xlink;" width="168.264" height="167.393"
	 viewBox="0 0 168.264 167.393" overflow="visible" enable-background="new 0 0 168.264 167.393" xml:space="preserve">
<g>
	<path fill="none" stroke="#231F20" stroke-width="11" d="M159.887,136.869c0,23.367-18.942,42.313-42.314,42.313H47.053
		c-23.374,0-42.316-18.945-42.316-42.313V62.821c0-23.37,18.942-42.315,42.316-42.315h70.519c23.372,0,42.314,18.945,42.314,42.315
		V136.869z"/>
	<line fill="none" stroke="#231F20" stroke-width="9" x1="41.513" y1="-9.214" x2="41.513" y2="57.278"/>
	<line fill="none" stroke="#231F20" stroke-width="9" x1="80.306" y1="-9.803" x2="80.306" y2="56.692"/>
	<line fill="none" stroke="#231F20" stroke-width="9" x1="119.092" y1="-9.803" x2="119.092" y2="56.692"/>
	<g>
		<rect x="114.348" y="71.65" fill="#231F20" stroke="#231F20" stroke-width="1.5" width="11.427" height="13.505"/>
		<g>
			<line fill="none" stroke="#231F20" stroke-width="12" x1="69.155" y1="77.019" x2="120.406" y2="77.019"/>
			<line fill="none" stroke="#231F20" stroke-width="12" x1="120.406" y1="77.019" x2="120.406" y2="126.891"/>
			<g>
				<line fill="none" stroke="#231F20" stroke-width="12" x1="119.382" y1="78.045" x2="48.125" y2="149.299"/>
			</g>
		</g>
	</g>
</g>
</svg>
