<?xml version="1.0" encoding="utf-8"?>
<!-- Generator: Adobe Illustrator 12.0.0, SVG Export Plug-In . SVG Version: 6.00 Build 51448)  -->
<!DOCTYPE svg PUBLIC "-//W3C//DTD SVG 1.1//EN" "http://www.w3.org/Graphics/SVG/1.1/DTD/svg11.dtd" [
	<!ENTITY ns_svg "http://www.w3.org/2000/svg">
	<!ENTITY ns_xlink "http://www.w3.org/1999/xlink">
]>
<svg  version="1.1" id="Layer_1" xmlns="&ns_svg;" xmlns:xlink="&ns_xlink;" width="168.264" height="167.393"
	 viewBox="0 0 168.264 167.393" overflow="visible" enable-background="new 0 0 168.264 167.393" xml:space="preserve">
<g>
	<g>
		<polygon fill="#FFFFFF" points="95.462,147.392 75.382,147.394 69.524,29.336 101.268,29.334 		"/>
		<path fill="#FFFFFF" d="M183.014,107.582c-2.678,0-86.743-16.713-86.743-16.713V55.355c0,0,72.82,29.769,77.823,32.03
			C179.089,89.655,185.692,107.582,183.014,107.582z"/>
		<path fill="#FFFFFF" d="M101.268,31.677c0,24.998-7.031,45.264-15.709,45.267c-8.67-0.002-15.706-20.265-15.702-45.267
			c-0.004-24.998,7.032-45.267,15.702-45.267C94.237-13.591,101.273,6.676,101.268,31.677z"/>
		<path fill="#FFFFFF" d="M47.712,147.565c0.982,0.005,31.898,0,31.898,0v-20.229c0,0-26.778,7.438-28.612,8.727
			C49.156,137.354,46.726,147.568,47.712,147.565z"/>
		<path fill="#FFFFFF" d="M124.365,147.719c-0.985-0.002-31.903,0-31.903,0v-20.236c0,0,26.787,7.441,28.625,8.729
			C122.925,137.502,125.351,147.719,124.365,147.719z"/>
		<path fill="#FFFFFF" d="M-13.058,107.586c2.678-0.004,86.743-16.718,86.743-16.718V55.351c0,0-72.824,29.773-77.822,32.037
			C-9.132,89.651-15.736,107.58-13.058,107.586z"/>
	</g>
</g>
<polygon fill="#FFFFFF" points="180.659,103.06 85.411,183.197 183.442,105.891 "/>
<polygon fill="#FFFFFF" points="-10.302,103.184 85.411,183.197 -13.086,106.016 "/>
<polygon fill="#FFFFFF" points="11.42,96.533 85.411,183.197 8.255,98.955 "/>
<polygon fill="#FFFFFF" points="158.491,96.533 85.411,183.197 161.655,98.955 "/>
<polygon fill="#FFFFFF" points="44.638,78.299 85.411,183.197 40.88,79.689 "/>
<polygon fill="#FFFFFF" points="127.196,79.609 85.411,183.197 130.954,80.999 "/>
</svg>
