<?xml version="1.0" encoding="utf-8"?>
<!-- Generator: Adobe Illustrator 12.0.0, SVG Export Plug-In . SVG Version: 6.00 Build 51448)  -->
<!DOCTYPE svg PUBLIC "-//W3C//DTD SVG 1.1//EN" "http://www.w3.org/Graphics/SVG/1.1/DTD/svg11.dtd" [
	<!ENTITY ns_svg "http://www.w3.org/2000/svg">
	<!ENTITY ns_xlink "http://www.w3.org/1999/xlink">
]>
<svg  version="1.1" id="Layer_1" xmlns="&ns_svg;" xmlns:xlink="&ns_xlink;" width="168.264" height="167.393"
	 viewBox="0 0 168.264 167.393" overflow="visible" enable-background="new 0 0 168.264 167.393" xml:space="preserve">
<g>
	<rect x="-13.456" y="-7.327" fill="#51B748" stroke="#51B748" stroke-width="4" width="197.088" height="180.999"/>
	<g>
		<g>
			<g>
				<path fill="#201F1F" d="M3.603,20.045h95.15V46.13H38.947v25.288h56.287V97.51H38.947v54.119H2.904L3.603,20.045z"/>
			</g>
		</g>
	</g>
	<g>
		<path fill="#51B748" stroke="#51B748" stroke-width="19" d="M153.854,33.524V50.67c-5.114-2.62-10.417-4.588-15.924-5.904
			c-5.483-1.32-11.194-1.96-17.087-1.96c-8.971,0-15.712,1.371-20.189,4.128c-4.485,2.75-6.731,6.898-6.731,12.405
			c0,4.203,1.617,7.49,4.815,9.887c3.236,2.396,9.701,4.678,19.412,6.846l6.189,1.371c12.845,2.757,21.965,6.646,27.386,11.661
			c5.397,5.01,8.106,12.009,8.106,20.976c0,10.224-4.053,18.328-12.145,24.286c-8.091,5.959-19.216,8.944-33.372,8.944
			c-5.892,0-12.051-0.565-18.421-1.693c-6.411-1.119-13.138-2.808-20.212-5.07v-18.718c6.686,3.465,13.274,6.054,19.756,7.782
			c6.489,1.732,12.923,2.596,19.294,2.596c8.508,0,15.052-1.453,19.655-4.362c4.58-2.928,6.89-7.04,6.89-12.347
			c0-4.918-1.657-8.692-4.98-11.305c-3.3-2.615-10.574-5.153-21.8-7.573l-6.301-1.469c-11.203-2.36-19.278-5.998-24.257-10.876
			c-4.992-4.891-7.467-11.599-7.467-20.107c0-10.362,3.653-18.367,10.992-24.011c7.321-5.621,17.746-8.453,31.234-8.453
			c6.67,0,12.954,0.491,18.854,1.454C143.437,30.122,148.881,31.58,153.854,33.524z"/>
	</g>
	<g>
		<path fill="#201F1F" stroke="#201F1F" stroke-width="5" d="M149.158,24.711v16.457c-5.114,0-20.327-1.006-26.223-1.006
			c-8.968,0-15.708,1.504-20.186,4.529c-4.49,3.015-6.732,7.563-6.732,13.603c0,4.609,1.614,8.215,4.815,10.844
			c3.232,2.627,9.697,5.129,19.407,7.508l6.194,1.504c12.845,3.022,21.966,7.288,27.386,12.791
			c5.394,5.492,8.104,13.167,8.104,23.003c0,11.21-4.054,20.095-12.145,26.631c-8.088,6.536-19.216,9.812-33.368,9.812
			c-5.896,0-12.055-0.62-18.426-1.857c-6.41-1.229-13.135-3.084-20.21-5.563v-20.522c6.686,3.794,13.272,6.638,19.758,8.531
			c6.485,1.9,12.919,2.848,19.29,2.848c8.509,0,15.056-1.595,19.66-4.788c4.579-3.206,6.886-7.718,6.886-13.536
			c0-5.396-1.654-9.537-4.978-12.4c-3.304-2.868-10.577-5.652-21.804-8.303l-6.297-1.615c-11.202-2.584-19.281-6.575-24.258-11.925
			c-4.992-5.363-7.467-12.721-7.467-22.051c0-11.365,3.652-20.143,10.989-26.333c7.326-6.165,17.751-9.271,31.235-9.271
			C127.46,23.599,144.178,24.711,149.158,24.711z"/>
	</g>
	<polygon fill="#201F1F" points="154.211,53.15 154.211,12.621 174.481,32.885 	"/>
	<rect x="146.529" y="12.262" fill="#51B748" width="7.923" height="41.563"/>
	<rect x="130.275" y="11.592" fill="#51B748" width="7.919" height="41.563"/>
	<rect x="113.629" y="12.988" fill="#51B748" width="7.918" height="41.563"/>
</g>
</svg>
