<?xml version="1.0" encoding="utf-8"?>
<!-- Generator: Adobe Illustrator 12.0.0, SVG Export Plug-In . SVG Version: 6.00 Build 51448)  -->
<!DOCTYPE svg PUBLIC "-//W3C//DTD SVG 1.1//EN" "http://www.w3.org/Graphics/SVG/1.1/DTD/svg11.dtd" [
	<!ENTITY ns_svg "http://www.w3.org/2000/svg">
	<!ENTITY ns_xlink "http://www.w3.org/1999/xlink">
]>
<svg  version="1.1" xmlns="&ns_svg;" xmlns:xlink="&ns_xlink;" width="179.315" height="168.694" viewBox="0 0 179.315 168.694"
	 overflow="visible" enable-background="new 0 0 179.315 168.694" xml:space="preserve">
<g id="Layer_2">
</g>
<g id="Layer_1">
	<rect x="4.584" y="54.499" fill="#FFFFFF" width="58.217" height="113.501"/>
	<rect x="70.006" y="14.409" fill="#FFFFFF" width="105.236" height="153.786"/>
	<line fill="none" stroke="#000000" stroke-width="13" x1="87.231" y1="32.887" x2="160.523" y2="32.887"/>
	<line fill="none" stroke="#000000" stroke-width="13" x1="87.231" y1="55.438" x2="160.523" y2="55.438"/>
	<line fill="none" stroke="#000000" stroke-width="13" x1="87.231" y1="77.989" x2="160.523" y2="77.989"/>
	<line fill="none" stroke="#FFFFFF" stroke-width="2" x1="87.231" y1="100.541" x2="160.523" y2="100.541"/>
	<line fill="none" stroke="#000000" stroke-width="13" x1="21.146" y1="71.412" x2="69.224" y2="71.412"/>
	<line fill="none" stroke="#000000" stroke-width="13" x1="21.146" y1="93.963" x2="69.224" y2="93.963"/>
	<line fill="none" stroke="#000000" stroke-width="13" x1="21.146" y1="116.515" x2="69.224" y2="116.515"/>
	<line fill="none" stroke="#000000" stroke-width="13" x1="21.146" y1="139.065" x2="69.224" y2="139.065"/>
	<line fill="none" stroke="#000000" stroke-width="13" x1="87.231" y1="100.541" x2="160.523" y2="100.541"/>
	<line fill="none" stroke="#000000" stroke-width="13" x1="87.231" y1="123.093" x2="160.523" y2="123.093"/>
	<rect x="113.542" y="144.077" fill="#FFFFFF" stroke="#FFFFFF" width="20.672" height="24.117"/>
	<rect x="117.945" y="152.221" stroke="#000000" width="11.923" height="12.215"/>
	<line fill="none" stroke="#FFFFFF" stroke-width="8" x1="109.82" y1="24.431" x2="109.82" y2="133.428"/>
	<line fill="none" stroke="#FFFFFF" stroke-width="8" x1="139.887" y1="24.431" x2="139.887" y2="133.428"/>
	<line fill="none" stroke="#FFFFFF" stroke-width="8" x1="42.166" y1="54.499" x2="42.166" y2="159.737"/>
	<rect x="65.305" fill="#FFFFFF" width="114.01" height="6.264"/>
	<rect y="41.188" fill="#FFFFFF" width="63.271" height="6.264"/>
</g>
</svg>
