<?xml version="1.0" encoding="utf-8"?>
<!-- Generator: Adobe Illustrator 12.0.0, SVG Export Plug-In . SVG Version: 6.00 Build 51448)  -->
<!DOCTYPE svg PUBLIC "-//W3C//DTD SVG 1.1//EN" "http://www.w3.org/Graphics/SVG/1.1/DTD/svg11.dtd" [
	<!ENTITY ns_svg "http://www.w3.org/2000/svg">
	<!ENTITY ns_xlink "http://www.w3.org/1999/xlink">
]>
<svg  version="1.1" xmlns="&ns_svg;" xmlns:xlink="&ns_xlink;" width="173.664" height="136.209" viewBox="0 0 173.664 136.209"
	 overflow="visible" enable-background="new 0 0 173.664 136.209" xml:space="preserve">
<g id="Layer_2" display="none">
	<rect x="-13.668" y="-32.396" display="inline" width="200" height="200"/>
</g>
<g id="Layer_4_1_" display="none">
	<g id="Layer_6" display="inline">
		<g>
			<g>
				<polygon fill="#FFFFFF" points="61.443,104.669 50.938,94.166 111.188,28.15 127.798,44.393 				"/>
				<path fill="#FFFFFF" d="M128.596,129.124c-1.401-1.399-36.418-54.343-36.418-54.343l19.052-19.049
					c0,0,22.124,54.063,23.527,57.894C136.154,117.451,129.998,130.525,128.596,129.124z"/>
				<path fill="#FFFFFF" d="M126.54,45.647c-13.409,13.41-27.951,20.596-32.491,16.062c-4.541-4.54,2.65-19.086,16.062-32.494
					c13.404-13.409,27.954-20.599,32.491-16.061C147.139,17.689,139.945,32.242,126.54,45.647z"/>
				<path fill="#FFFFFF" d="M36.366,79.785c0.517,0.515,16.69,16.688,16.69,16.688L63.91,85.621c0,0-18.002-10.02-19.654-10.289
					C42.602,75.063,35.85,79.271,36.366,79.785z"/>
				<path fill="#FFFFFF" d="M76.384,119.969C75.871,119.452,59.7,103.28,59.7,103.28l10.85-10.854c0,0,10.021,17.999,10.29,19.652
					C81.11,113.733,76.899,120.482,76.384,119.969z"/>
				<path fill="#FFFFFF" d="M26.02,26.55c1.4,1.399,54.342,36.414,54.342,36.414l19.05-19.049c0,0-54.064-22.128-57.895-23.529
					C37.689,18.984,24.618,25.147,26.02,26.55z"/>
			</g>
		</g>
	</g>
</g>
<g id="Layer_5_1_">
	<g>
		<g>
			<rect x="18.87" y="5.839" fill="#FFFFFF" width="136.333" height="7.108"/>
		</g>
		<g>
			<g>
				<path fill="#FFFFFF" d="M28.009,15.928v114.196h50.269v-11.007h17.516v11.007h50.271V15.928H28.009z M60.03,114.441H44.384
					v-9.421H60.03V114.441z M60.03,97.932H44.384v-9.421H60.03V97.932z M60.41,81.74H44.765v-9.421H60.41V81.74z M60.41,65.23
					H44.765V55.81H60.41V65.23z M60.41,49.408H44.765v-9.421H60.41V49.408z M60.41,32.898H44.765v-9.421H60.41V32.898z
					 M83.959,114.072H68.313v-9.421h15.646V114.072z M83.959,97.563H68.313v-9.422h15.646V97.563z M84.339,81.371H68.694V71.95
					h15.645V81.371z M84.339,64.861H68.694v-9.422h15.645V64.861z M84.339,49.039H68.694v-9.422h15.645V49.039z M84.339,32.529
					H68.694v-9.421h15.645V32.529z M106.968,114.257H91.322v-9.421h15.646V114.257z M106.968,97.747H91.322v-9.421h15.646V97.747z
					 M107.349,81.556H91.702v-9.421h15.646V81.556z M107.349,65.046H91.702v-9.421h15.646V65.046z M107.349,49.224H91.702v-9.421
					h15.646V49.224z M107.349,32.713H91.702v-9.421h15.646V32.713z M130.896,113.888H115.25v-9.422h15.646V113.888z M130.896,97.377
					H115.25v-9.421h15.646V97.377z M131.277,81.187h-15.646v-9.422h15.646V81.187z M131.277,64.676h-15.646v-9.421h15.646V64.676z
					 M131.277,48.854h-15.646v-9.422h15.646V48.854z M131.277,32.344h-15.646v-9.421h15.646V32.344z"/>
			</g>
		</g>
	</g>
</g>
<g id="Layer_1" display="none">
	<g id="Layer_4" display="inline">
	</g>
	<g id="Layer_1_1_" display="inline">
		<g>
			<line display="none" fill="none" stroke="#231F20" stroke-width="4" x1="11.215" y1="20.947" x2="159.941" y2="20.947"/>
			<g>
				<g>
					<path fill="#FFFFFF" d="M98.33,80.374H70.455V67.781H9.878v32.526c0,15.774,5.862,28.565,21.03,28.565H138.37
						c15.168,0,21.032-12.789,21.032-28.565V67.781H98.33V80.374z M151.064,25.271H18.216c-5.869,5.047-8.338,14.017-8.338,24.247
						v12.42h149.526v-12.42C159.404,39.287,156.934,30.317,151.064,25.271z"/>
				</g>
			</g>
			<g>
				<g>
					<path fill="#FFFFFF" d="M97.658,3.785H73.534c-8.289,0-11.792,6.989-11.792,15.611c0,0.282,0.054,0.554,0.152,0.818h7.766
						c-0.673-1.363-2.246-5.264,0.261-7.873c3.081-3.205,28.677-2.509,31.091,0c1.238,1.291,0.4,6.295,0.098,7.873h8.188
						c0.101-0.264,0.152-0.536,0.152-0.818C109.449,10.774,105.945,3.785,97.658,3.785z M96.936,25.164h-22.68
						C81.252,26.097,89.939,26.097,96.936,25.164z"/>
				</g>
			</g>
		</g>
		<rect x="78.317" y="67.781" fill="#FFFFFF" width="13.349" height="6.604"/>
	</g>
	<g id="Layer_5">
		<g display="inline">
			<path fill="#FFFFFF" d="M-58.795,215.134c0,0,2.785-27.645,19.53-51.848c16.309-23.553,34.279-40.877,34.279-40.877
				s-81.386-8.969-130.574,36.396c-49.188,45.379-49.188,36.707-49.188,36.707v10.961
				C-184.747,206.474-110.873,241.155-58.795,215.134z"/>
			<path fill="#FFFFFF" d="M-181.827,194.489l1.608-9.102c0,0,54.675-69.221,89.281-78.765c14.704-4.337,25.91-4.918,30.774-0.047
				c4.869,4.864,4.869,8.379,4.869,8.379S-114.956,106.712-181.827,194.489z"/>
			<line fill="none" x1="-150.062" y1="99.14" x2="-149.165" y2="119.79"/>
		</g>
		<g display="inline">
			<g>
				<path fill="#FFFFFF" d="M-133.061,97.728c0-0.028,0.004-0.059,0.004-0.088c0-4.32-3.373-7.826-7.528-7.826
					c-3.502,0-6.435,2.489-7.276,5.854v31.472l14.822-17.019V97.728H-133.061z"/>
			</g>
		</g>
		<g display="inline">
			<g>
				<path fill="#FFFFFF" d="M-149.141,110.813c-1.168-2.799-3.885-4.765-7.046-4.765c-4.208,0-7.615,3.466-7.656,7.75h-0.004v29.693
					l14.706-16.609V110.813L-149.141,110.813z"/>
			</g>
		</g>
		<g display="inline">
			<g>
				<path fill="#FFFFFF" d="M-149.209,136.076v-14.972c-9.579,11.451-20.353,29.69-31.727,58.351
					C-180.937,179.455-162.03,152.274-149.209,136.076z M-147.918,119.597v14.859c2.992-3.725,5.579-6.732,7.406-8.48
					c9.634-9.22,11.606-10.734,17.917-14.627c11.139-5.73,13.08-5.537,13.401-5.381
					C-110.239,105.175-125.717,94.171-147.918,119.597z"/>
			</g>
		</g>
	</g>
	<g id="Layer_3" display="inline">
	</g>
</g>
<g id="Layer_3_1_" display="none">
	<g display="inline">
		<g>
			<path fill="#FFFFFF" d="M54.976,23.15c0,3.632-2.884,6.58-6.438,6.58c-3.557,0-6.438-2.947-6.438-6.58
				c0-3.631,2.879-6.576,6.438-6.576C52.091,16.574,54.976,19.519,54.976,23.15z"/>
			<polygon fill="#FFFFFF" points="54.976,32.868 42.101,47.409 42.101,22.454 54.976,22.454 			"/>
		</g>
		<g>
			<path fill="#FFFFFF" d="M41.05,35.92c0,3.576-2.872,6.473-6.403,6.473c-3.537,0-6.401-2.897-6.401-6.473
				c0-3.573,2.863-6.471,6.401-6.471C38.179,29.45,41.05,32.349,41.05,35.92z"/>
			<polygon fill="#FFFFFF" points="41.122,46.37 28.247,60.912 28.247,35.96 41.122,35.96 			"/>
		</g>
		<path fill="#FFFFFF" d="M117.364,121.113c0,0,2.341-23.23,16.412-43.569c13.704-19.792,28.806-34.349,28.806-34.349
			s-68.39-7.537-109.725,30.584c-41.333,38.133-41.333,30.846-41.333,30.846v9.21C11.524,113.835,73.602,142.979,117.364,121.113z"
			/>
		<path fill="#FFFFFF" d="M14.695,101.777l0.533-3.019c0,0,44.105-63.097,72.131-73.504c18.392-4.444,24.768-1.138,28.855,2.955
			c3.441,4.738,4.092,7.041,4.092,7.041S70.888,28.016,14.695,101.777z"/>
		<g>
			<g>
				<path fill="#FFFFFF" d="M42.097,40.232v12.875c2.81-3.533,5.252-6.407,6.929-8.011c4.493-4.146,10.095-10.682,15.056-13.572
					c4.801-2.797,11.313-4.779,11.313-4.779S61.805,16.557,42.097,40.232z M41.151,54.304V41.381
					c-7.907,9.84-16.762,25.137-26.096,48.657C15.055,90.038,30.396,67.985,41.151,54.304z"/>
			</g>
		</g>
	</g>
</g>
</svg>
