<?xml version="1.0" encoding="utf-8"?>
<!-- Generator: Adobe Illustrator 21.0.0, SVG Export Plug-In . SVG Version: 6.00 Build 0)  -->
<svg version="1.1" id="Layer_1" xmlns="http://www.w3.org/2000/svg" xmlns:xlink="http://www.w3.org/1999/xlink" x="0px" y="0px"
	 viewBox="0 0 173.7 136.2" style="enable-background:new 0 0 173.7 136.2;" xml:space="preserve">
<style type="text/css">
	.st0{display:none;}
	.st1{display:inline;}
	.st2{fill:#FFFFFF;}
	.st3{display:none;fill:none;stroke:#231F20;stroke-width:4;}
	.st4{fill:none;}
</style>
<g id="Layer_2" class="st0">
	<rect x="-13.7" y="-32.4" class="st1" width="200" height="200"/>
</g>
<g id="Layer_4_1_" class="st0">
	<g id="Layer_6" class="st1">
		<g>
			<g>
				<polygon class="st2" points="61.4,104.7 50.9,94.2 111.2,28.1 127.8,44.4 				"/>
				<path class="st2" d="M128.6,129.1c-1.4-1.4-36.4-54.3-36.4-54.3l19.1-19c0,0,22.1,54.1,23.5,57.9
					C136.2,117.5,130,130.5,128.6,129.1z"/>
				<path class="st2" d="M126.5,45.6C113.1,59,98.5,66.2,94,61.7s2.7-19.1,16.1-32.5s28-20.6,32.5-16.1
					C147.1,17.7,139.9,32.2,126.5,45.6z"/>
				<path class="st2" d="M36.4,79.8c0.5,0.5,16.7,16.7,16.7,16.7L64,85.6c0,0-18-10-19.7-10.3C42.6,75.1,35.8,79.3,36.4,79.8z"/>
				<path class="st2" d="M76.4,120c-0.5-0.5-16.7-16.7-16.7-16.7l10.9-10.9c0,0,10,18,10.3,19.7C81.1,113.7,76.9,120.5,76.4,120z"/>
				<path class="st2" d="M26,26.5C27.4,27.9,80.4,63,80.4,63l19.1-19c0,0-54.1-22.1-57.9-23.5C37.7,19,24.6,25.1,26,26.5z"/>
			</g>
		</g>
	</g>
</g>
<g id="Layer_5_1_">
	<g>
		<g>
			<rect x="18.9" y="5.8" class="st2" width="136.3" height="7.1"/>
		</g>
		<g>
			<g>
				<path class="st2" d="M28,15.9v114.2h50.3v-11h17.5v11h50.3V15.9H28z M60,114.4H44.4V105H60V114.4z M60,97.9H44.4v-9.4H60V97.9z
					 M60.4,81.7H44.8v-9.4h15.6V81.7z M60.4,65.2H44.8v-9.4h15.6V65.2z M60.4,49.4H44.8V40h15.6V49.4z M60.4,32.9H44.8v-9.4h15.6
					V32.9z M84,114.1H68.3v-9.4H84V114.1z M84,97.6H68.3v-9.4H84V97.6z M84.3,81.4H68.7V72h15.6C84.3,71.9,84.3,81.4,84.3,81.4z
					 M84.3,64.9H68.7v-9.4h15.6C84.3,55.4,84.3,64.9,84.3,64.9z M84.3,49H68.7v-9.4h15.6C84.3,39.6,84.3,49,84.3,49z M84.3,32.5
					H68.7v-9.4h15.6C84.3,23.1,84.3,32.5,84.3,32.5z M107,114.3H91.3v-9.4H107V114.3z M107,97.7H91.3v-9.4H107V97.7z M107.3,81.6
					H91.7v-9.4h15.6L107.3,81.6L107.3,81.6z M107.3,65H91.7v-9.4h15.6L107.3,65L107.3,65z M107.3,49.2H91.7v-9.4h15.6L107.3,49.2
					L107.3,49.2z M107.3,32.7H91.7v-9.4h15.6L107.3,32.7L107.3,32.7z M130.9,113.9h-15.6v-9.4h15.6V113.9z M130.9,97.4h-15.6V88
					h15.6V97.4z M131.3,81.2h-15.6v-9.4h15.6V81.2z M131.3,64.7h-15.6v-9.4h15.6V64.7z M131.3,48.9h-15.6v-9.4h15.6V48.9z
					 M131.3,32.3h-15.6v-9.4h15.6V32.3z"/>
			</g>
		</g>
	</g>
</g>
<g id="Layer_1_2_" class="st0">
	<g id="Layer_4" class="st1">
	</g>
	<g id="Layer_1_1_" class="st1">
		<g>
			<line class="st3" x1="11.2" y1="20.9" x2="159.9" y2="20.9"/>
			<g>
				<g>
					<path class="st2" d="M98.3,80.4H70.5V67.8H9.9v32.5c0,15.8,5.9,28.6,21,28.6h107.5c15.2,0,21-12.8,21-28.6V67.8H98.3V80.4z
						 M151.1,25.3H18.2c-5.9,5-8.3,14-8.3,24.2v12.4h149.5V49.5C159.4,39.3,156.9,30.3,151.1,25.3z"/>
				</g>
			</g>
			<g>
				<g>
					<path class="st2" d="M97.7,3.8H73.5c-8.3,0-11.8,7-11.8,15.6c0,0.3,0.1,0.6,0.2,0.8h7.8c-0.7-1.4-2.2-5.3,0.3-7.9
						c3.1-3.2,28.7-2.5,31.1,0c1.2,1.3,0.4,6.3,0.1,7.9h8.2c0.1-0.3,0.2-0.5,0.2-0.8C109.4,10.8,105.9,3.8,97.7,3.8z M96.9,25.2
						H74.3C81.3,26.1,89.9,26.1,96.9,25.2z"/>
				</g>
			</g>
		</g>
		<rect x="78.3" y="67.8" class="st2" width="13.3" height="6.6"/>
	</g>
	<g id="Layer_5" class="st1">
		<g>
			<path class="st2" d="M-58.8,215.1c0,0,2.8-27.6,19.5-51.8C-23,139.7-5,122.4-5,122.4s-81.4-9-130.6,36.4s-49.2,36.7-49.2,36.7v11
				C-184.7,206.5-110.9,241.2-58.8,215.1z"/>
			<path class="st2" d="M-181.8,194.5l1.6-9.1c0,0,54.7-69.2,89.3-78.8c14.7-4.3,25.9-4.9,30.8,0s4.9,8.4,4.9,8.4
				S-115,106.7-181.8,194.5z"/>
			<line class="st4" x1="-150.1" y1="99.1" x2="-149.2" y2="119.8"/>
		</g>
		<g>
			<g>
				<path class="st2" d="M-133.1,97.7L-133.1,97.7c0-4.4-3.4-7.9-7.5-7.9c-3.5,0-6.4,2.5-7.3,5.9v31.5l14.8-17V97.7L-133.1,97.7z"/>
			</g>
		</g>
		<g>
			<g>
				<path class="st2" d="M-149.1,110.8c-1.2-2.8-3.9-4.8-7-4.8c-4.2,0-7.6,3.5-7.7,7.8l0,0v29.7l14.7-16.6V110.8L-149.1,110.8z"/>
			</g>
		</g>
		<g>
			<g>
				<path class="st2" d="M-149.2,136.1v-15c-9.6,11.5-20.4,29.7-31.7,58.4C-180.9,179.5-162,152.3-149.2,136.1z M-147.9,119.6v14.9
					c3-3.7,5.6-6.7,7.4-8.5c9.6-9.2,11.6-10.7,17.9-14.6c11.1-5.7,13.1-5.5,13.4-5.4C-110.2,105.2-125.7,94.2-147.9,119.6z"/>
			</g>
		</g>
	</g>
	<g id="Layer_3" class="st1">
	</g>
</g>
<g id="Layer_3_1_" class="st0">
	<g class="st1">
		<g>
			<path class="st2" d="M55,23.1c0,3.6-2.9,6.6-6.4,6.6c-3.6,0-6.4-2.9-6.4-6.6c0-3.6,2.9-6.6,6.4-6.6C52.1,16.6,55,19.5,55,23.1z"
				/>
			<polygon class="st2" points="55,32.9 42.1,47.4 42.1,22.5 55,22.5 			"/>
		</g>
		<g>
			<path class="st2" d="M41,35.9c0,3.6-2.9,6.5-6.4,6.5s-6.4-2.9-6.4-6.5s2.9-6.5,6.4-6.5C38.2,29.5,41,32.3,41,35.9z"/>
			<polygon class="st2" points="41.1,46.4 28.2,60.9 28.2,36 41.1,36 			"/>
		</g>
		<path class="st2" d="M117.4,121.1c0,0,2.3-23.2,16.4-43.6c13.7-19.8,28.8-34.3,28.8-34.3S94.2,35.7,52.9,73.8
			s-41.3,30.8-41.3,30.8v9.2C11.5,113.8,73.6,143,117.4,121.1z"/>
		<path class="st2" d="M14.7,101.8l0.5-3c0,0,44.1-63.1,72.1-73.5c18.4-4.4,24.8-1.1,28.9,3c3.4,4.7,4.1,7,4.1,7S70.9,28,14.7,101.8
			z"/>
		<g>
			<g>
				<path class="st2" d="M42.1,40.2v12.9c2.8-3.5,5.3-6.4,6.9-8c4.5-4.1,10.1-10.7,15.1-13.6c4.8-2.8,11.3-4.8,11.3-4.8
					S61.8,16.6,42.1,40.2z M41.2,54.3V41.4c-8,9.8-16.8,25.1-26.1,48.6C15.1,90,30.4,68,41.2,54.3z"/>
			</g>
		</g>
	</g>
</g>
</svg>
