<?xml version="1.0" encoding="utf-8"?>
<!-- Generator: Adobe Illustrator 12.0.0, SVG Export Plug-In . SVG Version: 6.00 Build 51448)  -->
<!DOCTYPE svg PUBLIC "-//W3C//DTD SVG 1.1//EN" "http://www.w3.org/Graphics/SVG/1.1/DTD/svg11.dtd" [
	<!ENTITY ns_svg "http://www.w3.org/2000/svg">
	<!ENTITY ns_xlink "http://www.w3.org/1999/xlink">
]>
<svg  version="1.1" id="Layer_1" xmlns="&ns_svg;" xmlns:xlink="&ns_xlink;" width="168.264" height="167.393"
	 viewBox="0 0 168.264 167.393" overflow="visible" enable-background="new 0 0 168.264 167.393" xml:space="preserve">
<g>
	<g>
		<path fill="#231F20" d="M154.314,60.361c0,39.86-56.146,120.3-72.187,120.3c-13.753,0-72.179-80.439-72.179-120.3
			c0-39.863,32.315-72.183,72.179-72.183C121.99-11.822,154.314,20.497,154.314,60.361z"/>
	</g>
	<g>
		<path fill="#FFFFFF" d="M55.983,5.508c5.668-1.34,14.777-2.237,23.735-2.237c12.983,0,21.34,2.237,27.457,7.313
			c5.226,3.882,8.509,9.854,8.509,17.763c0,9.854-6.564,18.359-17.019,22.089v0.448c9.558,2.238,20.748,10.15,20.748,25.075
			c0,8.653-3.434,15.217-8.66,20.147c-6.861,6.421-18.204,9.398-34.621,9.398c-8.949,0-15.817-0.593-20.148-1.186V5.508z
			 M68.966,46.705h11.792c13.583,0,21.645-7.312,21.645-17.014c0-11.643-8.813-16.417-21.941-16.417
			c-5.972,0-9.406,0.448-11.496,0.893V46.705z M68.966,94.762c2.69,0.447,6.269,0.592,10.895,0.592
			c13.432,0,25.823-4.914,25.823-19.548c0-13.58-11.79-19.403-25.966-19.403H68.966V94.762z"/>
	</g>
</g>
</svg>
