<?xml version="1.0" encoding="utf-8"?>
<!-- Generator: Adobe Illustrator 12.0.0, SVG Export Plug-In . SVG Version: 6.00 Build 51448)  -->
<!DOCTYPE svg PUBLIC "-//W3C//DTD SVG 1.1//EN" "http://www.w3.org/Graphics/SVG/1.1/DTD/svg11.dtd" [
	<!ENTITY ns_svg "http://www.w3.org/2000/svg">
	<!ENTITY ns_xlink "http://www.w3.org/1999/xlink">
]>
<svg  version="1.1" id="Layer_1" xmlns="&ns_svg;" xmlns:xlink="&ns_xlink;" width="168.264" height="167.393"
	 viewBox="0 0 168.264 167.393" overflow="visible" enable-background="new 0 0 168.264 167.393" xml:space="preserve">
<g>
	<path fill="#231F20" d="M150.564,61.196c0,38.921-54.822,117.465-70.485,117.465C66.655,178.66,9.6,100.116,9.6,61.196
		c0-38.924,31.558-70.481,70.478-70.481C119.003-9.286,150.564,22.272,150.564,61.196z"/>
	<g>
		<path fill="#FFFFFF" d="M64.427,70.997L55.025,99.46h-12.08L73.69,8.976h14.097l30.873,90.484h-12.49l-9.661-28.463H64.427z
			 M94.093,61.868l-9-26.043c-1.876-5.909-3.22-11.275-4.561-16.511H80.13c-1.212,5.236-2.682,10.872-4.432,16.378l-8.856,26.176
			H94.093z"/>
	</g>
</g>
</svg>
