<?xml version="1.0" encoding="utf-8"?>
<!-- Generator: Adobe Illustrator 12.0.0, SVG Export Plug-In . SVG Version: 6.00 Build 51448)  -->
<!DOCTYPE svg PUBLIC "-//W3C//DTD SVG 1.1//EN" "http://www.w3.org/Graphics/SVG/1.1/DTD/svg11.dtd" [
	<!ENTITY ns_svg "http://www.w3.org/2000/svg">
	<!ENTITY ns_xlink "http://www.w3.org/1999/xlink">
]>
<svg  version="1.1" id="Layer_1" xmlns="&ns_svg;" xmlns:xlink="&ns_xlink;" width="168.264" height="167.393"
	 viewBox="0 0 168.264 167.393" overflow="visible" enable-background="new 0 0 168.264 167.393" xml:space="preserve">
<g>
	<path fill="#201F1F" d="M130.222,43.514c0,29.906-21.217,54.161-47.394,54.161c-26.169,0-47.388-24.255-47.388-54.161
		c0-29.906,21.219-54.161,47.388-54.161C109.005-10.646,130.222,13.608,130.222,43.514z"/>
	<path fill="#201F1F" d="M84.52,170.109V74.195l-27.08,3.383c0,0,11.576,11.537,1.127,18.642
		c-3.479,2.379-18.098,4.252-24.818,5.056c-20.49,2.433-31.597,27.923-31.597,54.159c0,26.238,0,16.93,0,16.93H57.44L84.52,170.109z
		"/>
	<rect x="2.152" y="155.435" fill="#201F1F" width="163.051" height="18.059"/>
	<path fill="#201F1F" d="M82.835,167.853V71.939l27.079,3.383c0,0-11.576,11.537-1.127,18.643
		c3.479,2.378,18.098,4.251,24.825,5.056c20.483,2.432,31.59,27.922,31.59,54.16c0,26.236,0,16.928,0,16.928h-55.288L82.835,167.853
		z"/>
</g>
</svg>
