<svg>
  <defs>

    <symbol id="flight_icon">
      <polygon points="35.5 92.9 25 82.4 85.3 16.4 101.9 32.6 " class="a"/><path d="M102.7 117.3c-1.4-1.4-36.4-54.3-36.4-54.3l19.1-19c0 0 22.1 54.1 23.5 57.9C110.2 105.7 104.1 118.7 102.7 117.3z" class="a"/><path d="M100.6 33.9c-13.4 13.4-28 20.6-32.5 16.1 -4.5-4.5 2.7-19.1 16.1-32.5C97.6 4 112.1-3.2 116.7 1.4 121.2 5.9 114 20.4 100.6 33.9z" class="a"/><path d="M10.5 68c0.5 0.5 16.7 16.7 16.7 16.7l10.9-10.9c0 0-18-10-19.7-10.3C16.7 63.3 9.9 67.5 10.5 68z" class="a"/><path d="M50.5 108.2c-0.5-0.5-16.7-16.7-16.7-16.7l10.9-10.9c0 0 10 18 10.3 19.7C55.2 101.9 51 108.7 50.5 108.2z" class="a"/><path d="M0.1 14.8c1.4 1.4 54.3 36.4 54.3 36.4l19.1-19c0 0-54.1-22.1-57.9-23.5C11.8 7.2-1.3 13.4 0.1 14.8z" class="a"/></svg>
    <symbol>

    <symbol id="hotel_icon">
      <rect width="136.3" height="7.1" class="a"/><path d="M9.1 13.1v123.2h50.3v-11h17.5v11h50.3V13.1H9.1zM41.2 111.6H25.5v-9.4H41.2V111.6zM41.2 95.1H25.5v-9.4H41.2V95.1zM41.5 78.9H25.9V69.5H41.5V78.9zM41.5 62.4H25.9v-9.4H41.5V62.4zM41.5 46.6H25.9v-9.4H41.5V46.6zM41.5 30.1H25.9v-9.4H41.5V30.1zM65.1 111.2H49.4v-9.4h15.6V111.2zM65.1 94.7H49.4v-9.4h15.6V94.7zM65.5 78.5H49.8v-9.4h15.6V78.5zM65.5 62H49.8v-9.4h15.6V62zM65.5 46.2H49.8v-9.4h15.6V46.2zM65.5 29.7H49.8v-9.4h15.6V29.7zM88.1 111.4H72.5v-9.4h15.6V111.4zM88.1 94.9H72.5v-9.4h15.6V94.9zM88.5 78.7H72.8v-9.4h15.6v9.4H88.5zM88.5 62.2H72.8v-9.4h15.6v9.4H88.5zM88.5 46.4H72.8v-9.4h15.6v9.4H88.5zM88.5 29.9H72.8v-9.4h15.6v9.4H88.5zM112 111H96.4v-9.4h15.6V111zM112 94.5H96.4v-9.4h15.6V94.5zM112.4 78.3H96.8v-9.4h15.6V78.3zM112.4 61.8H96.8v-9.4h15.6V61.8zM112.4 46H96.8v-9.4h15.6V46zM112.4 29.5H96.8v-9.4h15.6V29.5z" class="a"/></svg>
    <symbol>

    <symbol id="car_icon">
      <polygon points="1.3 61.1 21.5 70.8 21.5 104 1.3 104 " class="a"/><polygon points="107.9 70.8 128.1 60.5 128.1 103.4 107.9 103.4 " class="a"/><path d="M120.9 30.9C120.9 7.4 95.6 0 64.4 0 33.1 0 7.8 7.4 7.8 30.9c0 21.5-6.7 49.1 20.8 53.7 2.5 0.4 65 0.6 67.6 0.6C127.5 85.2 120.9 54.4 120.9 30.9zM20.2 67.6c-5.7 0-10.3-4.6-10.3-10.3 0-5.7 4.6-10.3 10.3-10.3s10.3 4.6 10.3 10.3C30.6 63 25.9 67.6 20.2 67.6zM15.3 24.3c0-14 21.9-18.4 49-18.4 27 0 49 4.4 49 18.4C113.2 38.3 15.3 41 15.3 24.3zM110 67.6c-5.7 0-10.3-4.6-10.3-10.3 0-5.7 4.6-10.3 10.3-10.3s10.3 4.6 10.3 10.3C120.3 63 115.7 67.6 110 67.6z" class="a"/><path d="M35.4 34.1c-3.9-0.6-7.3-1.3-10.3-2.2 -0.3 0-0.7 0-1 0C10.8 31.9 0 40.4 0 51v14.3c0 10.6 10.8 19.2 24.1 19.2 13.3 0 24.1-8.6 24.1-19.2V51C48.1 43.7 42.9 37.3 35.4 34.1zM20.3 67.6C14.6 67.6 10 63 10 57.3c0-5.7 4.6-10.3 10.3-10.3 5.7 0 10.3 4.6 10.3 10.3C30.7 63 26 67.6 20.3 67.6zM106 32.5c-13.3 0-24.1 8.6-24.1 19.2v14.3c0 10.6 10.8 19.2 24.1 19.2 13.3 0 24.1-8.6 24.1-19.2V51.7C130 41.1 119.3 32.5 106 32.5zM110.1 67.6c-5.7 0-10.3-4.6-10.3-10.3 0-5.7 4.6-10.3 10.3-10.3 5.7 0 10.3 4.6 10.3 10.3C120.4 63 115.8 67.6 110.1 67.6z" class="a"/></svg>
    <symbol>

    <symbol id="hotel_icon">
      <polygon points="43.6 102.8 33.1 92.3 93.3 26.3 109.9 42.6 " class="a"/><path d="M110.7 127.3c-1.4-1.4-36.4-54.3-36.4-54.3L93.4 53.9c0 0 22.1 54.1 23.5 57.9C118.3 115.6 112.1 128.7 110.7 127.3z" class="a"/><path d="M108.7 43.8C95.3 57.2 80.7 64.4 76.2 59.9c-4.5-4.5 2.7-19.1 16.1-32.5 13.4-13.4 28-20.6 32.5-16.1C129.3 15.9 122.1 30.4 108.7 43.8z" class="a"/><path d="M18.5 77.9c0.5 0.5 16.7 16.7 16.7 16.7L46 83.8c0 0-18-10-19.7-10.3C24.7 73.2 18 77.4 18.5 77.9z" class="a"/><path d="M58.5 118.1c-0.5-0.5-16.7-16.7-16.7-16.7l10.9-10.9c0 0 10 18 10.3 19.7C63.2 111.9 59 118.6 58.5 118.1z" class="a"/><path d="M8.2 24.7c1.4 1.4 54.3 36.4 54.3 36.4l19.1-19c0 0-54.1-22.1-57.9-23.5C19.8 17.1 6.7 23.3 8.2 24.7z" class="a"/><rect width="136.3" height="7.1" class="b"/><path d="M9.1 13.1v123.2h50.3v-11h17.5v11h50.3V13.1H9.1zM41.2 111.6H25.5v-9.4H41.2V111.6zM41.2 95.1H25.5v-9.4H41.2V95.1zM41.5 78.9H25.9V69.5H41.5V78.9zM41.5 62.4H25.9v-9.4H41.5V62.4zM41.5 46.6H25.9v-9.4H41.5V46.6zM41.5 30.1H25.9v-9.4H41.5V30.1zM65.1 111.2H49.4v-9.4h15.6V111.2zM65.1 94.7H49.4v-9.4h15.6V94.7zM65.5 78.5H49.8v-9.4h15.6V78.5zM65.5 62H49.8V52.6h15.6V62zM65.5 46.2H49.8v-9.4h15.6V46.2zM65.5 29.7H49.8v-9.4h15.6V29.7zM88.1 111.4H72.5v-9.4h15.6V111.4zM88.1 94.9H72.5v-9.4h15.6V94.9zM88.5 78.7H72.8v-9.4h15.6v9.4H88.5zM88.5 62.2H72.8v-9.4h15.6v9.4H88.5zM88.5 46.4H72.8v-9.4h15.6v9.4H88.5zM88.5 29.9H72.8v-9.4h15.6v9.4H88.5zM112 111H96.4v-9.4h15.6V111zM112 94.5H96.4v-9.4h15.6V94.5zM112.4 78.3H96.8v-9.4h15.6V78.3zM112.4 61.8H96.8v-9.4h15.6V61.8zM112.4 46H96.8v-9.4h15.6V46zM112.4 29.5H96.8v-9.4h15.6V29.5z" class="b"/></svg>
    <symbol>

    <symbol id="cruise_icon">
      <path d="M43.5 6.6c0 3.6-2.9 6.6-6.4 6.6 -3.6 0-6.4-2.9-6.4-6.6C30.6 2.9 33.5 0 37 0 40.6 0 43.5 2.9 43.5 6.6z" class="a"/><polygon points="43.5 16.3 30.6 30.8 30.6 5.9 43.5 5.9 " class="a"/><path d="M29.5 19.3c0 3.6-2.9 6.5-6.4 6.5 -3.5 0-6.4-2.9-6.4-6.5 0-3.6 2.9-6.5 6.4-6.5C26.7 12.9 29.5 15.8 29.5 19.3z" class="a"/><polygon points="29.6 29.8 16.7 44.3 16.7 19.4 29.6 19.4 " class="a"/><path d="M105.8 104.5c0 0 2.3-23.2 16.4-43.6 13.7-19.8 28.8-34.3 28.8-34.3S82.7 19.1 41.3 57.2C0 95.3 0 88.1 0 88.1v9.2C0 97.3 62.1 126.4 105.8 104.5z" class="a"/><path d="M3.2 85.2l0.5-3c0 0 44.1-63.1 72.1-73.5 18.4-4.4 24.8-1.1 28.9 3 3.4 4.7 4.1 7 4.1 7S59.4 11.4 3.2 85.2z" class="a"/><path d="M30.6 23.7v12.9c2.8-3.5 5.3-6.4 6.9-8 4.5-4.1 10.1-10.7 15.1-13.6 4.8-2.8 11.3-4.8 11.3-4.8S50.3 0 30.6 23.7zM29.6 37.7V24.8c-7.9 9.8-16.8 25.1-26.1 48.7C3.5 73.5 18.9 51.4 29.6 37.7z" class="a"/></svg>
    <symbol>

    <!-- etc -->

  </defs>
</svg>
